{"title":"Ice Age: Continental Drift (2012) greek subs embedded","uid":7422450,"size":1515475049,"categoryP":"video","categoryS":"movies","magnet":"?xt=urn:btih:ea51685bec984b0f5e170d4d37a897fa490e74a2&amp;dn=Ice+Age%3A+Continental+Drift+%282012%29+greek+subs+embedded&amp;tr=udp%3A%2F%2Ftracker.openbittorrent.com%3A80&amp;tr=udp%3A%2F%2Fopen.demonii.com%3A1337&amp;tr=udp%3A%2F%2Ftracker.coppersurfer.tk%3A6969&amp;tr=udp%3A%2F%2Fexodus.desync.com%3A6969","seeders":1,"leechers":1,"uploader":"paok1","files":1,"time":1341704361,"description":"\nFormat                                   : Matroska\nFormat version                           : Version 2\nFile size                                : 1.41 GiB\nDuration                                 : 1h 19mn\nOverall bit rate                         : 2 537 Kbps\nEncoded date                             : UTC 2012-07-07 19:29:26\nWriting application                      : mkvmerge v5.6.0 ('Kenya Kane') built on May 27 2012 16:44:04\nWriting library                          : libebml v1.2.3 + libmatroska v1.3.0\n\nVideo\nID                                       : 1\nFormat                                   : MPEG-4 Visual\nFormat profile                           : Advanced Simple@L5\nFormat settings, BVOP                    : Yes\nFormat settings, QPel                    : No\nFormat settings, GMC                     : No warppoints\nFormat settings, Matrix                  : Default (H.263)\nCodec ID                                 : XVID\nCodec ID/Hint                            : XviD\nDuration                                 : 1h 19mn\nBit rate                                 : 2 294 Kbps\nWidth                                    : 720 pixels\nHeight                                   : 314 pixels\nDisplay aspect ratio                     : 2.25:1\nFrame rate                               : 25.000 fps\nColor space                              : YUV\nChroma subsampling                       : 4:2:0\nBit depth                                : 8 bits\nScan type                                : Progressive\nCompression mode                         : Lossy\nBits/(Pixel*Frame)                       : 0.406\nStream size                              : 1.28 GiB (90%)\nWriting library                          : XviD 64\n\nAudio\nID                                       : 2\nFormat                                   : AC-3\nFormat/Info                              : Audio Coding 3\nMode extension                           : CM (complete main)\nMuxing mode                              : Header stripping\nCodec ID                                 : A_AC3\nDuration                                 : 1h 19mn\nBit rate mode                            : Constant\nBit rate                                 : 192 Kbps\nChannel(s)                               : 2 channels\nChannel positions                        : Front: L R\nSampling rate                            : 48.0 KHz\nBit depth                                : 16 bits\nCompression mode                         : Lossy\nStream size                              : 109 MiB (8%)\n[IMG]http://i1173.photobucket.com/albums/r584/sirgeorge1973/iceagemkv_thumbs_20120707_234500.jpg[/IMG]","torrent":{"xt":"urn:btih:ea51685bec984b0f5e170d4d37a897fa490e74a2","amp;dn":"Ice+Age%3A+Continental+Drift+%282012%29+greek+subs+embedded","amp;tr":["udp%3A%2F%2Ftracker.openbittorrent.com%3A80","udp%3A%2F%2Fopen.demonii.com%3A1337","udp%3A%2F%2Ftracker.coppersurfer.tk%3A6969","udp%3A%2F%2Fexodus.desync.com%3A6969"],"infoHash":"ea51685bec984b0f5e170d4d37a897fa490e74a2","infoHashBuffer":{"type":"Buffer","data":[234,81,104,91,236,152,75,15,94,23,13,77,55,168,151,250,73,14,116,162]},"announce":[],"urlList":[]}}